# File created by Blade
# Date/Time:  Tue Jan 27 19:05:11 2015
#---------------------------------------------------------
:version 1.10
:name HOM
:units
  mass 1.0
  length 1.000000
  angle deg
:documentation
     Acclaim Skeleton File
:root
   axis xyz
   order TX TY TZ RX RY RZ
   position 0.000000 0.000000 0.000000
   orientation 0 0 0
:bonedata
   begin
      id 1
      name Spine_dum
      direction 0.000000 1.000000 0.000000
      length 5.195262
      axis 0.0 0.0 0.0 xyz
   end
   begin
      id 2
      name LeftUpLeg_dum
      direction 1.000000 0.000000 0.000000
      length 3.351363
      axis 0.0 0.0 0.0 xyz
   end
   begin
      id 3
      name RightUpLeg_dum
      direction -1.000000 0.000000 0.000000
      length 3.351363
      axis 0.0 0.0 0.0 xyz
   end
   begin
      id 4
      name Spine
      direction 0.000000 1.000000 0.000000
      length 0.000000
      axis 0.0 0.0 0.0 xyz
      dof rx ry rz
   end
   begin
      id 5
      name Spine_dum1
      direction 0.000000 1.000000 0.000000
      length 15.653875
      axis 0.0 0.0 0.0 xyz
   end
   begin
      id 6
      name Spine_dum2
      direction 0.000000 1.000000 0.000000
      length 10.329768
      axis 0.0 0.0 0.0 xyz
   end
   begin
      id 7
      name Spine_dum3
      direction 0.000000 1.000000 0.000000
      length 10.329768
      axis 0.0 0.0 0.0 xyz
   end
   begin
      id 8
      name Head
      direction 0.000000 1.000000 0.000000
      length 4.527550
      axis 0.0 0.0 0.0 xyz
      dof rx ry rz
   end
   begin
      id 9
      name LeftShoulder
      direction 1.000000 0.000000 0.000000
      length 6.996006
      axis 0.0 0.0 -90.0 xyz
      dof rx ry rz
   end
   begin
      id 10
      name LeftArm
      direction 1.000000 0.000000 0.000000
      length 10.209302
      axis 0.0 0.0 -90.0 xyz
      dof rx ry rz
   end
   begin
      id 11
      name LeftForeArm
      direction 1.000000 0.000000 0.000000
      length 8.563163
      axis 0.0 0.0 -90.0 xyz
      dof ry rz rx
   end
   begin
      id 12
      name LeftHand
      direction 0.000000 0.000000 0.000000
      length 0.000000
      axis 0.0 0.0 -90.0 xyz
      dof rx ry rz
   end
   begin
      id 13
      name LeftHand_dum1
      direction 0.000000 0.000000 0.000000
      length 0.000000
      axis 0.0 0.0 -90.0 xyz
   end
   begin
      id 14
      name LeftHand_dum2
      direction 1.000000 0.000000 0.000000
      length 3.937000
      axis 0.0 0.0 -90.0 xyz
   end
   begin
      id 15
      name LeftHandThumb1
      direction 0.000000 0.000000 1.000000
      length 3.937000
      axis 0.0 0.0 -90.0 xyz
      dof rx rz ry
   end
   begin
      id 16
      name RightShoulder
      direction -1.000000 0.000000 0.000000
      length 6.996006
      axis 0.0 0.0 90.0 xyz
      dof rx ry rz
   end
   begin
      id 17
      name RightArm
      direction -1.000000 0.000000 0.000000
      length 10.209302
      axis 0.0 0.0 90.0 xyz
      dof rx ry rz
   end
   begin
      id 18
      name RightForeArm
      direction -1.000000 0.000000 0.000000
      length 8.563163
      axis 0.0 0.0 90.0 xyz
      dof ry rz rx
   end
   begin
      id 19
      name RightHand
      direction 0.000000 0.000000 0.000000
      length 0.000000
      axis 0.0 0.0 90.0 xyz
      dof rx ry rz
   end
   begin
      id 20
      name RightHand_dum1
      direction 0.000000 0.000000 0.000000
      length 0.000000
      axis 0.0 0.0 90.0 xyz
   end
   begin
      id 21
      name RightHand_dum2
      direction -1.000000 0.000000 0.000000
      length 3.937000
      axis 0.0 0.0 90.0 xyz
   end
   begin
      id 22
      name RightHandThumb1
      direction 0.000000 0.000000 1.000000
      length 3.937000
      axis 0.0 0.0 90.0 xyz
      dof rx rz ry
   end
   begin
      id 23
      name LeftUpLeg
      direction 0.000000 -1.000000 0.000000
      length 16.346831
      axis 0.0 0.0 0.0 xyz
      dof rx ry rz
   end
   begin
      id 24
      name LeftLeg
      direction 0.000000 -1.000000 0.000000
      length 13.959795
      axis 0.0 0.0 0.0 xyz
      dof rx ry rz
   end
   begin
      id 25
      name LeftFoot
      direction 0.000000 -0.258819 0.965926
      length 5.165550
      axis 15.0 0.0 0.0 xyz
      dof rx ry rz
   end
   begin
      id 26
      name LeftToeBase
      direction 0.000000 0.000000 1.000000
      length 2.952750
      axis 0.0 0.0 0.0 xyz
      dof rx ry rz
   end
   begin
      id 27
      name RightUpLeg
      direction 0.000000 -1.000000 0.000000
      length 16.346831
      axis 0.0 0.0 0.0 xyz
      dof rx ry rz
   end
   begin
      id 28
      name RightLeg
      direction 0.000000 -1.000000 0.000000
      length 13.959795
      axis 0.0 0.0 0.0 xyz
      dof rx ry rz
   end
   begin
      id 29
      name RightFoot
      direction 0.000000 -0.258819 0.965926
      length 5.165550
      axis 15.0 0.0 0.0 xyz
      dof rx ry rz
   end
   begin
      id 30
      name RightToeBase
      direction 0.000000 0.000000 1.000000
      length 2.952750
      axis 0.0 0.0 0.0 xyz
      dof rx ry rz
   end
:hierarchy
   begin
      root Spine_dum LeftUpLeg_dum RightUpLeg_dum
      Spine_dum Spine
      LeftUpLeg_dum LeftUpLeg
      RightUpLeg_dum RightUpLeg
      Spine Spine_dum1 Spine_dum2 Spine_dum3
      Spine_dum1 Head
      Spine_dum2 LeftShoulder
      Spine_dum3 RightShoulder
      LeftShoulder LeftArm
      LeftArm LeftForeArm
      LeftForeArm LeftHand
      LeftHand LeftHand_dum1 LeftHand_dum2
      LeftHand_dum1 LeftHandThumb1
      RightShoulder RightArm
      RightArm RightForeArm
      RightForeArm RightHand
      RightHand RightHand_dum1 RightHand_dum2
      RightHand_dum1 RightHandThumb1
      LeftUpLeg LeftLeg
      LeftLeg LeftFoot
      LeftFoot LeftToeBase
      RightUpLeg RightLeg
      RightLeg RightFoot
      RightFoot RightToeBase
   end

# File created by Blade
# Date/Time:  Tue Jan 27 19:05:02 2015
# Frame Rate: 120.000 fps
#------------------------------------------------------
:FULLY-SPECIFIED
:DEGREES
1230
root -3.138620 31.580993 -4.343824 6.712153 5.261746 0.553011
Spine -5.699084 -6.378429 -3.290500
Head 20.840819 3.438307 2.197973
LeftShoulder -18.271903 15.795518 12.970563
LeftArm 14.134251 -46.151308 -72.431255
LeftForeArm -9.143713 -0.000000 88.854594
LeftHand -11.651053 -0.000000 18.418030
LeftHandThumb1 -26.253704 0.000000 33.147579
RightShoulder -13.250931 -4.059471 -11.760926
RightArm 5.942050 -34.639465 87.126032
RightForeArm -23.856962 -0.000000 20.605030
RightHand -14.202695 -0.000000 10.724579
RightHandThumb1 -24.326973 -0.000000 -32.862282
LeftUpLeg -6.767053 -11.511062 -7.755868
LeftLeg 14.530471 -0.000000 -0.000000
LeftFoot -23.320242 22.757489 -10.923853
LeftToeBase 9.672091 -0.000000 -0.000000
RightUpLeg -20.275687 -3.503739 -0.300459
RightLeg 77.593534 -0.000000 -0.000000
RightFoot -20.803937 -16.736723 15.124693
RightToeBase -11.428861 -0.000000 0.000000
1231
root -3.150244 31.589805 -4.351654 6.755955 5.269179 0.416809
Spine -5.702924 -6.350746 -3.153214
Head 20.857516 3.363091 2.309299
LeftShoulder -18.251978 15.743269 12.947554
LeftArm 13.945927 -46.073031 -72.210697
LeftForeArm -9.305723 0.000000 88.917911
LeftHand -11.646313 -0.000000 18.543829
LeftHandThumb1 -26.253704 0.000000 33.147579
RightShoulder -13.241248 -4.000140 -11.811121
RightArm 5.943711 -34.637848 87.144126
RightForeArm -23.840071 -0.000000 20.470922
RightHand -14.252870 -0.000000 10.762663
RightHandThumb1 -24.326973 -0.000000 -32.862282
LeftUpLeg -6.834310 -11.475582 -7.598780
LeftLeg 14.502211 -0.000000 -0.000000
LeftFoot -23.338337 22.785876 -10.944194
LeftToeBase 9.792322 -0.000000 -0.000000
RightUpLeg -20.038098 -3.303488 -0.239659
RightLeg 74.740646 -0.000000 -0.000000
RightFoot -21.811861 -17.103016 15.164982
RightToeBase -11.268614 -0.000000 0.000000
1232
root -3.147436 31.602281 -4.365081 6.849643 5.261942 0.421062
Spine -5.740043 -6.335224 -3.152783
Head 20.885269 3.244271 2.356866
LeftShoulder -18.253030 15.759792 12.936346
LeftArm 13.896389 -46.052520 -72.207645
LeftForeArm -9.295073 -0.000000 88.991421
LeftHand -11.701576 -0.000000 18.435887
LeftHandThumb1 -26.253704 0.000000 33.147579
RightShoulder -13.205663 -3.940272 -11.836790
RightArm 5.956639 -34.615544 87.125747
RightForeArm -23.860386 -0.000000 20.348269
RightHand -14.318913 -0.000000 10.888267
RightHandThumb1 -24.326973 -0.000000 -32.862282
LeftUpLeg -6.881392 -11.822632 -7.568166
LeftLeg 14.352202 -0.000000 -0.000000
LeftFoot -23.118392 23.084469 -10.857848
LeftToeBase 9.556164 -0.000000 -0.000000
RightUpLeg -19.831608 -3.113876 -0.374089
RightLeg 71.836837 -0.000000 -0.000000
RightFoot -22.766056 -17.482164 14.832566
RightToeBase -11.546470 -0.000000 0.000000
1233
root -3.157266 31.612490 -4.377820 6.919751 5.278198 0.299416
Spine -5.748673 -6.324096 -3.025156
Head 20.871673 3.229919 2.465380
LeftShoulder -18.247507 15.750017 12.946439
LeftArm 13.805044 -45.994158 -72.155828
LeftForeArm -9.377413 -0.000000 89.026559
LeftHand -11.635610 -0.000000 18.482010
LeftHandThumb1 -26.253704 0.000000 33.147579
RightShoulder -13.181287 -3.866501 -11.889418
RightArm 5.966023 -34.644783 87.129571
RightForeArm -23.781153 -0.000000 20.214774
RightHand -14.327562 -0.000000 10.865364
RightHandThumb1 -24.326973 -0.000000 -32.862282
LeftUpLeg -6.978306 -11.946487 -7.401216
LeftLeg 14.336006 -0.000000 -0.000000
LeftFoot -23.035867 23.271237 -10.820151
LeftToeBase 9.391789 -0.000000 -0.000000
RightUpLeg -19.569111 -2.951908 -0.352809
RightLeg 68.774485 -0.000000 -0.000000
RightFoot -23.884584 -17.671769 15.017289
RightToeBase -11.753177 -0.000000 0.000000
1234
root -3.169028 31.621757 -4.383801 6.915880 5.293217 0.129802
Spine -5.685048 -6.299853 -2.863108
Head 20.851309 3.153879 2.567492
LeftShoulder -18.274378 15.812378 12.981867
LeftArm 13.863955 -45.944392 -72.304308
LeftForeArm -9.358077 -0.000000 89.057466
LeftHand -11.629665 -0.000000 18.409687
LeftHandThumb1 -26.253704 0.000000 33.147579
RightShoulder -13.135543 -3.748358 -11.941724
RightArm 5.887043 -34.631308 87.166216
RightForeArm -23.737779 -0.000000 20.138633
RightHand -14.374734 -0.000000 10.852400
RightHandThumb1 -24.326973 -0.000000 -32.862282
LeftUpLeg -7.008552 -11.947497 -7.217592
LeftLeg 14.345943 -0.000000 -0.000000
LeftFoot -23.117177 23.284092 -10.964778
LeftToeBase 9.401556 -0.000000 -0.000000
RightUpLeg -19.181522 -2.808503 -0.292551
RightLeg 65.613874 -0.000000 -0.000000
RightFoot -24.707761 -18.077352 14.721055
RightToeBase -11.858211 -0.000000 0.000000
1235
root -3.179790 31.631622 -4.396403 6.963840 5.321280 -0.009835
Spine -5.655114 -6.291138 -2.720696
Head 20.807859 3.047062 2.649666
LeftShoulder -18.283308 15.820316 12.990875
LeftArm 13.849045 -45.898302 -72.324987
LeftForeArm -9.383320 -0.000000 89.084556
LeftHand -11.629635 -0.000000 18.401485
LeftHandThumb1 -26.253704 0.000000 33.147579
RightShoulder -13.107278 -3.686461 -11.979566
RightArm 5.878759 -34.564157 87.173301
RightForeArm -23.775116 -0.000000 20.067338
RightHand -14.312896 -0.000000 10.851160
RightHandThumb1 -24.326973 -0.000000 -32.862282
LeftUpLeg -7.153264 -11.780203 -7.038826
LeftLeg 14.454186 -0.000000 -0.000000
LeftFoot -23.032715 23.150265 -10.781694
LeftToeBase 9.331171 -0.000000 -0.000000
RightUpLeg -18.833092 -2.679230 -0.270433
RightLeg 62.349032 -0.000000 -0.000000
RightFoot -25.371907 -18.386505 14.343823
RightToeBase -12.635806 -0.000000 0.000000
1236
root -3.189130 31.642551 -4.411031 7.029953 5.345988 -0.123257
Spine -5.636263 -6.277095 -2.614168
Head 20.774726 2.941788 2.757678
LeftShoulder -18.281368 15.844913 13.000303
LeftArm 13.863263 -45.848630 -72.349186
LeftForeArm -9.484016 0.000000 89.101939
LeftHand -11.593986 -0.000000 18.497162
LeftHandThumb1 -26.253704 0.000000 33.147579
RightShoulder -13.076248 -3.648509 -12.007453
RightArm 5.888721 -34.481364 87.167445
RightForeArm -23.844408 -0.000000 20.047995
RightHand -14.405193 -0.000000 10.891446
RightHandThumb1 -24.326973 -0.000000 -32.862282
LeftUpLeg -7.251086 -11.829655 -6.898099
LeftLeg 14.438994 -0.000000 -0.000000
LeftFoot -22.974067 23.208020 -10.749500
LeftToeBase 9.251388 -0.000000 -0.000000
RightUpLeg -18.519850 -2.447062 -0.250045
RightLeg 59.070699 -0.000000 -0.000000
RightFoot -25.980894 -18.696792 14.324244
RightToeBase -12.302199 -0.000000 0.000000
